<?xml version="1.0" encoding="utf-8"?>
<!-- Generator: Adobe Illustrator 20.0.0, SVG Export Plug-In . SVG Version: 6.00 Build 0)  -->
<svg version="1.1" id="burlywood_xA0_Image_1_" xmlns="http://www.w3.org/2000/svg" xmlns:xlink="http://www.w3.org/1999/xlink"
	 x="0px" y="0px" viewBox="0 0 1476 362" style="enable-background:new 0 0 1476 362;" xml:space="preserve">
<style type="text/css">
	.st0{fill:#6f5c43;}
	.st1{fill:#DEB887;}
</style>
<g>
	<g>
		<path class="st0" d="M1,339c2.9-6,2.2-12.6,2.4-18.8c0.6-14.9,1.9-29.8,2.7-44.8c1-17.8,2.3-35.5,3.3-53.3
			c1.5-25.7,3.3-51.5,4.7-77.2c0.8-15.7,2-31.5,3-47.2c0.6-8.1,1.5-16.2,1.4-24.4c0-2.1,0.8-3,2.8-3.3c4.5-0.5,7.7-2.5,8.5-7.4
			c0.4-2.8,2.4-3.7,5.1-3.5c11.9,0.9,23.9,1.7,35.8,2.5c9.1,0.6,18.3,0.9,27.4,1.6c19.2,1.6,38.4,2.3,57.1,8
			c22.3,6.8,33.4,27.5,35.3,47.8c1.6,17-4.3,32.4-10.3,47.8c-3.2,8.4-6.7,16.7-10.4,24.8c-1.5,3.3-1.1,5.9,0.8,8.7
			c7.8,11.6,14.8,23.7,19.8,36.8c6.3,16.5,6.7,33,1.2,49.8c-9.3,28.4-29.4,47.3-54.9,60.9c-9.9,5.3-21.6,5-32.4,7.6
			c-19.3,4.7-37.9,0.1-56.9-1.8C32,352,16.6,348.7,1,348C1,345,1,342,1,339z M23,313.1c0,3.8-0.2,7.7,0.1,11.5
			c0.2,2.8,1.4,5,4.8,5.2c13.9,1,27.8,1.9,41.7,3.2c9,0.8,18,0.5,26.9,1.3c11,1,21.4,0.3,31.7-4.2c6.9-3,13.2-6.9,19.9-10.3
			c11.5-5.8,19.7-15.2,27.3-25.1c3.6-4.7,6-10.6,7.9-16.5c2.6-8,1.4-15.7,0.8-23.6c-0.9-11.1-3.1-21.5-9.9-30.7
			c-5.8-7.9-11.2-16.1-17.4-23.7c-5-6.2-4.8-7.9,0-14.3c10.1-13.3,18.4-27.6,21.8-44.2c2.6-13.2,3.1-26.3-1.4-39.4
			c-2.8-8.1-7.7-14.2-15.2-18.2c-7.9-4.2-16.5-5.7-25.3-6.6c-12.5-1.2-25-2.8-37.5-4.2c-9.7-1.1-19.4-2.1-29.1-3
			c-9.2-0.9-18.5-1.5-27.8-2.2c-1.5-0.1-3-0.2-3.1,2.1c-0.2,3-0.7,5.9-0.9,8.9c-1.1,15.2-2.1,30.5-3.3,45.7
			c-1.5,18.5-3.8,37-4.5,55.5c-0.7,18.9-2.6,37.8-3.6,56.7C25.4,262.4,23.6,287.7,23,313.1z"/>
		<path class="st0" d="M1477,70c-3.2,7-3.5,14.7-4.8,22.1c-6.8,38-13.6,75.9-19.8,114c-3.1,19.2-5.4,38.5-6.5,58
			c-0.2,4-0.8,7.9-1.6,11.8c-0.4,2.2-0.6,4.7-3.8,5.1c-2,0.3-1.4,2.4-1.5,3.7c-0.3,2.8-1.2,4.2-4.4,3.8c-10.4-1.3-20.8-2.3-31.2-3.7
			c-3.8-0.5-6-4.3-5.4-8.7c3.9-29.7,4.1-59.7,5.7-89.6c0.7-13.6,0.5-27.3,1.7-40.9c2.2-26.3,4.1-52.7,4.6-79.1
			c0.1-3.9,1.2-7.3,5.3-8.7c2.9-1,2.9-4.3,5-5.9c9.7-7.6,28.8-8.9,39.3-2.2c6.7,4.3,14.1,8.1,17.4,16.2C1477,67.3,1477,68.7,1477,70
			z M1415,237.9c-0.4,0-0.8,0-1.2,0c0,9.3,0.1,18.6-0.1,27.9c0,2.4,0,4.3,3,4.6c5.6,0.6,11.2,1.3,16.8,1.9c1.9,0.2,3.1-0.1,3.4-2.4
			c0.9-7.2,2.1-14.4,3-21.7c1.9-15,3.5-29.9,5.6-44.9c2-14.3,4.7-28.4,7.3-42.6c4.5-25.5,9.5-50.9,12.6-76.6
			c1.8-14.9,1.3-22.9-15.3-29c-8-2.9-15.3,0-22.3,3.7c-1.5,0.8-1.7,2.2-1.8,3.8c-0.9,10.9-1.9,21.8-2.7,32.7
			c-1.8,27.2-3.6,54.4-5.2,81.6C1416.9,197.3,1416,217.6,1415,237.9z"/>
		<path class="st0" d="M684.8,233.3c0-0.4-0.1-0.9-0.1-1.3c0.1-6.7,0.5-13.3-0.9-19.9c0-0.6-0.1-1.3-0.1-2c0-6.6,1-13.3-0.8-19.8
			c-0.1-0.4-0.2-0.8-0.3-1.2c0.5-2.6,0.1-5.2-0.7-7.7c-2-4.5-5.2-8.2-8.5-11.6c-11.7-12.3-22.9-25-33.7-38.1
			c-12.4-14.9-24.1-30.3-35-46.3c-0.7-1.1-1.3-2.4-2.1-3.4c-2.7-3.5-2-6.2,1.8-8.1c3-1.6,4.5-3.4,3.3-7.1c-0.9-2.9,0.9-5.4,3.4-6.5
			c10.2-4.6,19.1-11.4,29.1-16.3c3.8-1.9,6.5-2.1,9.7,1.4c8.3,9.1,17,17.9,25.5,26.7c0.7,0.7,1,1.8,2.3,1.7c1.4-1,0.6-2.4,0.5-3.6
			c-1.1-8.6-2.1-17.1-3.3-25.7c-0.5-3.9-0.2-7.2,3.8-9.2c2.9-1.4,3.8-3.5,2.2-6.6c-1.1-2.1-0.2-4.2,1.5-5.3
			c14-9.4,28.6-17.5,45.5-20.7c4.3-0.8,5.3,0.9,5.5,4.9c2.1,29.7,3,59.4,4.4,89.1c1.1,23.1,2.4,46.1,3.4,69.2
			c0.9,20.3,1.5,40.5,2.5,60.8c1.1,24.1,2.5,48.2,3.6,72.3c0.5,10.5,0.7,20.9,0.9,31.4c0,1.1,0,2.5-0.6,3.4c-3.3,4.9-4,10.6-5,16.1
			c-0.6,3-2,4.2-4.9,4.6c-14.7,2.1-29.1-1.1-43.7-2.1c-2.9-0.2-3.7-2.4-3.8-4.9c-0.8-12.6-1.5-25.2-2.4-37.8c-0.1-1.1,1.2-3-0.8-3.3
			c-1.4-0.2-3.2,0.6-3.6,2.1c-1.8,6.6-7.1,6.5-12.3,6.8c-34.8,2.1-69.7,4.3-104.5,6.5c-5.5,0.3-10.9,0.8-16.3,1.1
			c-4,0.3-6.9-0.5-6.7-5.5c0.1-2.5-0.5-4.9-0.8-8.3c-5.9,7-11.6,13.3-16.7,20.1c-5.2,6.9-13.2,8.7-20.3,12.1
			c-1.7,0.8-2.7-0.5-3.6-1.8c-10.3-12.8-20.6-25.7-30.9-38.5c-9.6-11.9-19.3-23.6-30-36.7c-0.3,7-0.6,12.6-0.9,18.3
			c-0.4,8.6-0.8,17.3-1.2,25.9c0,1,0,2.4-0.5,2.9c-4.1,3.3-6.3,9.1-11.2,10.7c-12.2,3.8-24.3,7.9-37,10.1c-5.9,1-6.9,0.2-7.4-6
			c-1.8-23.1-3.7-46.1-5.5-69.2c-1.3-16.4-2-32.8-3.5-49.2c-2.4-26.5-4-53-7.6-79.4c-1.2-8.5-1.6-17.2-2.7-25.8
			c-0.4-3.3,0.1-6.3,4.3-7.1c2.3-0.4,4-1.8,4.5-4.2c0.9-4,3.5-5.2,7.3-5.8c20.9-3.3,42-5,63.1-5.2c13.9-0.1,27.7,1.7,40.8,7.7
			c11.8,5.5,19,14.8,23.1,26.2c9,25.1,10.4,50.9,5.7,77.1c-1.4,7.7-4.9,14.4-9.7,20.5c-3.9,5-7.7,10.1-11.7,14.9
			c-1.6,1.9-1.6,3.1,0.1,5C503.7,245.7,515,261,529,274c4.1,3.8,7.5,8.3,12.8,12.1c0-3.1,0.1-5.7,0-8.2c-1.6-30.6-3-61.1-4.8-91.7
			c-1.5-25.5-2.2-51.1-4.6-76.6c-0.8-8.8-0.9-17.6-1.3-26.4c-0.1-2.6,0.4-4.9,3.6-5.7c3.1-0.8,4.5-3.3,4.9-6.3
			c0.3-2.4,1.4-3,3.8-3.4c12.8-2.3,25.6-4.3,38.4-5.8c8-0.9,8-0.7,8.4,7c0.9,21.6,1.8,43.2,2.8,64.8c1.2,24.9,2.6,49.8,3.8,74.7
			c0.7,13.9,1.3,27.9,1.8,41.8c0.2,4.2,0.6,7,6.5,6.2c15.1-2.1,30.4-3.4,45.6-5c9.1-0.9,18.2-1.8,27.3-2.6c2-0.2,4,0.2,5.7,1.4
			c0.6,2.1,1.3,4.3,1.9,6.4c0.2-6.9,0.5-13.8-0.7-20.6c0-0.8,0-1.6,0-2.4c0.1-0.1,0.2-0.2,0.3-0.4
			C685.1,233.3,685,233.3,684.8,233.3z M430,269.9c-0.4,0-0.7,0-1.1,0c0-10.7,0.2-21.3-0.1-32c-0.1-4,1-6.2,4.8-7.3
			c3.6-1,6.4-1,9.2,2.4c10.3,12.8,20.9,25.4,31.5,38c13.6,16.4,27.2,32.7,40.7,49.1c1.5,1.8,2.6,3.5,5.1,1.3
			c6.1-5.5,11.6-11.5,16-18.4c2-3.1,3.2-6.4-0.2-9.9c-15.8-16.6-31.2-33.7-46.1-51.1c-3.5-4-7.2-7.8-9.9-12.4
			c-1.3-2.4-2.2-4.5,0.5-6.5c18.5-14.1,24.1-33.9,25.8-55.9c0.8-11.4-0.6-22.5-2.1-33.7c-2.8-20.7-18.6-38.3-38.9-42.2
			c-14.4-2.7-29.1-2.7-43.6-2.5c-12.3,0.2-24.6,3.4-36.9,5.4c-1.8,0.3-3.8,0.7-3.3,3.8c2.3,14.5,4.3,29.1,6.6,43.7
			c2.6,16.9,4.1,34,5.1,51c1.9,30.9,2.8,61.8,4.3,92.7c0.4,7.9,1.3,15.9,2.2,23.8c0.2,2,0.5,4.4,3.8,3.7c7.4-1.6,14.9-3.2,22.4-4.5
			c3.4-0.6,4.6-1.9,4.5-5.5C429.8,291.9,430,280.9,430,269.9z M722.1,326.2c3.5,0.1,6.9-0.8,10.4-0.3c3.1,0.4,5.1-1.1,4.8-4.6
			c-0.1-1.7,0.1-3.3,0-5c-1-24.1-2.2-48.2-3.1-72.3c-1.2-33.7-2.5-67.5-4.1-101.2c-1.6-32.1-2.5-64.2-3.8-96.2
			c-0.4-9.3-0.8-18.6-1.2-27.9c-0.1-2.3-0.2-4.4-3.8-2.8c-8.6,3.7-17.2,7.3-26,10.3c-4.9,1.7-5.4,4.7-5,9.1
			c1.5,18.7,2.7,37.5,3.9,56.2c0.1,1.9,0.7,4.2-1.5,5.4c-2.4,1.3-4.9,1-7-0.7c-2.9-2.3-5.8-4.5-8.4-7C666.9,79.1,657.7,67.8,647,58
			c-2.4-2.2-4.5-2.9-7.5-1.2c-5.4,3-10.8,5.9-16.3,8.7c-2.3,1.1-2.9,2.1-1.4,4.5c4.2,6.6,8.7,12.9,13.5,19.1
			c7.5,9.5,14.5,19.4,22.9,28.2c11.4,12.1,22.9,24.2,34.5,36.1c4.9,5.1,6.9,10.7,7.2,17.8c1.7,40.9,1.6,81.8,4,122.6
			c0.6,9.6,2.4,19.2,1.1,28.8c-0.3,2.5,1.3,2.7,3,2.8C712.8,325.6,717.4,325.9,722.1,326.2z M584.1,86.4
			C584.1,86.4,584.1,86.4,584.1,86.4c-0.2-3.2-0.3-6.3-0.6-9.5c-0.3-3-1.8-4.9-5.1-5c-8.9-0.3-17.5,1.4-26,3.7
			c-2.5,0.7-3.7,2.1-3.5,5c0.6,9.6,0.7,19.3,1.3,28.9c1.2,22.2,2.6,44.4,3.8,66.6c0.8,13.3,1.3,26.6,2.1,39.8c1.6,26,3.2,52,4.8,78
			c0.8,13.5-0.8,11.5,11.9,10.7c23.2-1.6,46.2-3.9,69.4-5.9c11.6-1,23.2-1.9,34.8-2.9c2.4-0.2,4.8-0.1,4.5-3.7
			c-0.7-8.9-1.3-17.9-1.8-26.8c-0.2-3.4-1.5-4.9-5.2-4.6c-8.3,0.7-16.6,0.8-24.9,1.3c-16.6,1.1-33.1,2.3-49.7,3.8
			c-7.7,0.7-8.2,0.6-8.6-7.2c-1.4-28.7-2.8-57.4-4-86.1C586.2,143.8,585.2,115.1,584.1,86.4z"/>
		<path class="st0" d="M885.1,145.4c0.9-10.7,1.8-21.5,2.8-32.2c0.7-7.8,1.5-15.6,2.1-23.4c0.2-2.8,1.1-4.7,4-5.5
			c1.5-0.4,3.5-0.8,3.9-2.7c1.1-5.7,5.8-6.5,10.2-7.2c8.6-1.3,17.1-2.6,25.8-2.1c7.3,0.4,8.3,1.3,7.8,8.8
			c-1.1,16.4-3.8,32.7-5.9,49.1c-2.8,22.3-5.7,44.5-8.7,66.8c-3.9,28.8-8.1,57.6-11.6,86.4c-0.9,7.4-2.9,14.9-1.4,22.6
			c0.5,2.7-1.5,5.5-4,7.1c-2.4,1.6-3.9,4-4.1,6.6c-0.3,4.4-3,5.7-6.5,6.1c-9.4,1.2-18.8,2.2-28.2,3.6c-3.4,0.5-3.1-1.8-3.4-3.5
			c-1.4-9.5-2.6-19.1-4-28.7c-2.7-18.6-5.7-37.1-9.4-55.5c-0.7-3.6-1.3-7.2-2.1-11.5c-1.8,5.9-1.8,11.4-2,16.8
			c-1,24.2-3.1,48.4-4.5,72.6c-0.1,1.9,0.1,3.7-2.7,3.8c-2,0.1-2,2-2.2,3.4c-0.6,3.5-2.6,5.1-6.1,5.4c-8.6,0.9-17.2,1.9-25.8,2.9
			c-3.3,0.4-5.2-0.9-6.3-4.2c-12.3-36.9-22.3-74.5-30.9-112.4c-7.2-31.7-14.4-63.5-21.6-95.2c-1.8-8.1-3.5-16.2-5.2-24.3
			c-1.3-6.1-0.4-7.4,5.9-8.3c2.1-0.3,2.9-1.1,3-3.1c0.4-5.4,3.8-6.6,8.6-6.5c10.2,0.2,20.3,0.1,30.5,0.2c8.8,0.1,9.6,0.1,9.4,8.5
			c-0.1,8.1,2,15.7,3.4,23.5c1.9,10.8,4.1,21.5,6.3,32.8c3.4-7.8,2.6-15.8,4.2-23.4c1.8-9,3.1-18,4.6-27.1c0.1-0.7,0-1.5,0.4-1.9
			c4.2-4.1,7.8-10,12.9-11.9c9-3.2,19-2.6,28.7-2.4c4.7,0.1,6.9,2.5,8,7.2c4.3,19.6,8.9,39.2,13.3,58.8
			C884.6,145.4,884.8,145.4,885.1,145.4z M818.6,211.2c-0.6-2-1.3-3.5-1.6-5c-7.3-37.7-14.7-75.4-23.2-112.9
			c-0.6-2.6-1.7-3.4-4.4-3.2c-6.5,0.5-12.9,0.7-19.4,1c-5.9,0.3-7,1.5-5.7,7.3c5.6,25.2,11.3,50.4,17.1,75.5
			c5.8,25.3,11.6,50.5,17.7,75.8c4.9,20.4,9.3,41,15.7,61c1.3,4.2,3.3,5.8,7.5,5.2c4.4-0.6,8.9-1.3,13.3-1.7c2-0.2,2.9-0.9,3-3
			c1.1-12.6,2.3-25.1,3.3-37.7c1.1-12.8,2-25.5,3.2-38.3c1.5-15.2,3-30.4,4.9-45.5c1.1-8.7,1.9-17.5,4.6-25.9
			c0.3-1.1,0.8-2.1,1.7-2.2c1.1-0.2,2.2,0.6,2.6,1.8c0.4,1.1,0.8,2.2,1,3.3c3.7,22.1,7.3,44.1,10.9,66.2
			c3.8,23.7,7.5,47.4,11.2,71.1c0.5,3.4,2,4.7,5.5,4.1c3.3-0.5,6.6-0.4,9.9-0.6c4-0.3,6.6-2.3,7.1-6.4c1.5-10.6,2.8-21.3,4.2-31.9
			c2.4-17.9,4.7-35.9,7.1-53.8c2.2-16.1,4.5-32.1,6.8-48.2c2.3-15.9,4.6-31.9,6.8-47.8c1.6-11.5,3-23,4.6-34.5
			c0.4-3.1-0.5-4.3-3.8-3.6c-4.2,0.8-8.5,1.3-12.8,1.9c-4.7,0.6-8.1,2.7-8.7,7.9c-1.7,14.7-3.4,29.3-5,44
			c-1.3,11.7-2.5,23.4-3.9,35.1c-1.3,11-2.8,22-4.3,33c-0.8,5.6-1.7,11.2-2.6,16.7c-0.2,1.2-0.1,3.1-1.9,3c-1.5-0.1-1.8-1.9-2-3.1
			c-0.4-2.1-0.3-4.3-0.7-6.4c-3.2-18.8-6.5-37.6-9.6-56.4c-3.6-21.9-8.2-43.5-14.2-64.8c-0.7-2.4-2-3.2-4.6-3.2
			c-6.4-0.1-12.6,1.1-18.9,1.4c-2.4,0.1-3,1.5-3.3,3.6c-0.9,6-2.2,12-2.9,18.1c-3.1,27-7.1,53.9-11.2,80.7
			C823,198.7,822.7,205.3,818.6,211.2z"/>
		<path class="st0" d="M332.9,79.9c7.8,0,15.6,0,23.5,0c2.6,0,3.3,0.9,3.3,3.6c0.1,23.8,0.1,47.6,0.8,71.4
			c0.8,27.5-0.2,54.9-0.8,82.4c-0.5,24.1-5.9,46.8-22.5,65.4c-12.9,14.5-28.3,25.6-46.9,30.8c-9.9,2.7-20.8,2.1-31-1.4
			c-13.6-4.6-26.5-10.4-38.7-18.1c-7.9-5.1-10.9-12.8-12.7-21.1c-4.1-19-7.2-38.2-8.5-57.7c-2.6-41.2-0.1-82.5-0.3-123.7
			c0-3.3,0-6.7,0-10c0-6-0.8-12.5,8-13.3c1-0.1,2.4-1.2,2.7-2.1c2-6.9,8.2-7,13.5-8.3c7.6-1.8,15.4-2.9,23.3-2.2
			c7.3,0.7,10.7,4,10.9,11.4c0.3,11,0.5,22,0.7,33c0.3,26.8,1.6,53.5,5.3,80.1c2.2,15.9,3.9,32,8.3,47.6c2.7,9.7,9,13.6,18.4,12.3
			c4.5-0.6,6.4-2.8,6.3-7.2c-0.3-16.8-0.5-33.6-0.8-50.4c-0.2-13.8-0.6-27.6-0.8-41.4c-0.3-22.1-0.6-44.3-0.9-66.4
			c-0.1-4.4,0.7-7.7,6.2-7.3c1.5,0.1,2.6-0.3,2.6-2.1c0.2-5.2,4.1-6.1,8.1-6.2c7.3-0.2,14.7-0.1,22-0.1
			C332.9,79.3,332.9,79.6,332.9,79.9z M352,145.8c0-20.2,0-35.2,0-50.2c0-2.9-0.1-6.7-3.3-6.8c-4.5-0.1-8.6-1.6-12.9-1.9
			c-6.5-0.4-13-0.2-19.5-0.2c-3,0-4.6,1-4.3,4.4c0.9,11.9,0,23.9,0.8,35.9c1.1,15.5,0.4,31.2,1,46.8c0.8,19.1-0.1,38.2,1.4,57.3
			c0.5,6.2,0.8,12.3-0.7,18.3c-3,12.2-13.2,16.7-23.5,20.7c-6.8,2.6-12.7,0.2-17.8-4.5c-6.5-6-10.9-13.5-13-22
			c-6.6-26.5-8.1-53.7-9-80.8c-0.7-22.1-0.3-44.3-0.4-66.5c0-8.5-2.9-11-11.4-10c-5.4,0.6-10.9,1.5-16.3,1.7c-3.4,0.1-4,1.3-4.2,4.4
			c-1.6,25.9-0.8,51.9-1.6,77.9c-1.1,34.3,2.6,68.3,6.9,102.3c1.1,8.6,3.2,17.3,10.5,22.9c16.2,12.5,34.6,19.6,55.2,19.4
			c17.8-0.1,32.2-8,43.6-21.5c6.7-7.9,12.5-16.5,13.5-27.2c1.3-13.2,1.9-26.5,2.5-39.7C350.5,197.8,352.7,169.2,352,145.8z"/>
		<path class="st0" d="M936,212.8c1-20.6,2.6-39.2,7.6-57.3c5.2-18.8,14.3-35.6,27.3-50.4c11.2-12.7,24.3-22.6,40.4-28.2
			c26.2-9.1,60.9-5,80.9,18.8c2.4,2.8,3.7,2.3,6.1,0.3c20.7-17.4,44.5-24.1,71.1-18.9c28.6,5.6,45.2,24.1,52.7,51.7
			c7.1,25.9,8,52.2,5.8,78.7c-1.6,19.8-5.8,38.9-14.9,56.9c-11.5,22.8-29.4,38.8-50.9,51.7c-12.5,7.5-25.7,10.2-39.8,10.9
			c-5.1,0.2-10-0.7-14.7-2.2c-7.2-2.4-14.3-5.2-21.4-8.1c-7.3-3-13.2-7.7-16.5-15c-1.2-2.7-2.2-2.4-4.3-0.9
			c-9.2,6.5-18.2,13.5-28.8,17.6c-16.9,6.6-34.1,8.1-51.3,0.9c-4.4-1.9-8.9-3.6-13.5-5.2c-10.6-3.8-16-12.4-20.7-21.7
			c-7.5-15.1-11.7-31-13.3-47.7C936.8,233.4,935.9,222.2,936,212.8z M1094.5,116.3c-0.6-1.4-1.1-2.4-1.6-3.4
			c-4.6-8.9-10.3-17.1-19.6-21.8c-17.6-8.9-36.3-8.5-55.1-5.7c-10.4,1.5-19.7,5.4-27,13.2c-22.4,24-32.8,53.2-35.9,85.1
			c-1.3,13.4-1.5,27.1-0.6,40.7c1.1,16.2,4.3,31.7,10.7,46.5c2.7,6.4,6.6,12.1,11.6,17.2c9,9.1,20.4,13.4,32.2,16.6
			c7,1.9,14.7,3.5,21.9,1.1c12.2-4,23-10.8,32.6-19.3c5.4-4.8,10.4-10.2,15.6-15.3c3.5,7.1,6.9,14.1,12.6,19.9
			c9,9,20.4,13.5,32.2,16.6c11.1,2.9,22.1,2.8,33-3.3c16.9-9.4,30.5-22.2,42.7-36.8c4.2-5.1,9.1-10,10.9-16.5
			c5-18.6,7.9-37.5,8.2-56.8c0.1-8.1,0.5-16.1,0.3-24.2c-0.3-16.6-2.2-32.8-8.4-48.3c-4.6-11.4-11-21.7-22.2-27.6
			c-17.6-9.2-36.5-8.5-55.6-5.9c-15.7,2.1-26.6,10.7-34.7,23.7C1097.3,113.5,1095.9,114.7,1094.5,116.3z"/>
		<path class="st0" d="M1234.9,159.4c0-22.1-0.1-44.3,0-66.4c0-7.4,7.2-14.4,14.6-14.2c16.6,0.4,33.3-0.4,49.9,1.1
			c15.1,1.4,29.6,5,42.4,13.4c10.6,6.9,19.2,16,25.9,27.2c17.4,29.3,23.1,61.4,23.2,94.7c0.1,32-9.8,61-29.5,86.6
			c-13.5,17.5-31.5,25.4-52.9,28.4c-23.6,3.3-46.3-1-69.1-5.9c-4.9-1.1-7.1-3.5-7-8.9c0.3-27.6-0.3-55.3,0.5-82.9
			C1233.6,208,1232.4,183.7,1234.9,159.4z M1252,234.3c-0.3,0-0.7,0-1,0c0,22.2,0,44.3,0,66.5c0,3.4,0.9,5.5,4.6,5.6
			c1.8,0.1,3.6,0.5,5.4,0.6c12.5,1.2,25.1,2.5,37.6,3.5c10.5,0.8,20.9,2.2,31.2-2.5c14.7-6.7,27.5-15.1,36.1-29.4
			c10.5-17.5,13.9-36.6,14.1-56.7c0.3-21.8,0.4-43.5-5.2-64.9c-3.3-12.6-8.3-24.3-15.4-35.3c-4.7-7.3-11.7-11.8-18.3-16.8
			c-6.3-4.8-13.1-9.1-21.2-10.5c-21-3.8-42.3-4.1-63.4-6.3c-2.3-0.2-2.9,0.7-2.9,2.8c-0.1,5.7-0.7,11.3-0.6,17
			c0.6,31.8-1.2,63.6-1,95.4C1252.1,213.7,1252,224,1252,234.3z"/>
		<path class="st0" d="M1427.3,362c-10-0.8-18.8-1.2-27.5-2.7c-3.8-0.6-5.7-2.2-5-6.3c2.2-12,2.2-24.1,3.3-36.2
			c0.3-3.2,0.3-6.6,5.1-6.1c1.9,0.2,2.1-1.1,2.3-2.5c0.6-4.3,3.1-5.2,7.1-4.5c9,1.4,18.1,2.5,27.1,3.7c4,0.6,5.6,2.4,4.4,6.9
			c-2.9,10.7-2.8,21.7-2.9,32.6c0,4.1,0,8.2-5.6,8.9c-0.5,0.1-1.3,0.8-1.3,1.2C1433.9,362.7,1430.1,362.3,1427.3,362z M1411,333.1
			c-0.2,10,2.1,12.9,8.8,13.8c2.6,0.3,5.3,0.4,8,0.6c3.8,0.3,5.5-1.7,6-5.1c0.9-7.4,1.7-14.8,2.6-22.3c0.2-1.8-0.5-2.8-2-4
			c-5.1-4.3-11.2-4.2-17.2-4.3c-2.6-0.1-3.9,1.3-4.2,3.9C1412.3,322.2,1411.5,328.8,1411,333.1z"/>
		<path class="st1" d="M684.8,236.1c1.2,6.8,0.9,13.6,0.7,20.6c-0.6-2.1-1.3-4.3-1.9-6.4c2.5-2.9,0.5-6.3,0.8-9.4
			C684.6,239.3,683.6,237.6,684.8,236.1z"/>
		<path class="st1" d="M683.8,212.1c1.4,6.6,1,13.3,0.9,19.9C683.3,225.4,683.4,218.8,683.8,212.1z"/>
		<path class="st1" d="M682.9,190.3c1.7,6.6,0.7,13.2,0.8,19.8C681.9,203.6,683,196.9,682.9,190.3z"/>
		<path class="st1" d="M681.9,181.3c0.9,2.5,1.2,5.1,0.7,7.7C681.6,186.5,681.3,184,681.9,181.3z"/>
		<path class="st1" d="M684.8,233.3c0.1,0,0.2,0,0.3,0c-0.1,0.1-0.2,0.2-0.3,0.4C684.8,233.7,684.8,233.3,684.8,233.3z"/>
		<path class="st1" d="M23,313.1c0.6-25.4,2.4-50.8,3.7-76.2c1-18.9,2.9-37.7,3.6-56.7c0.7-18.5,3-37,4.5-55.5
			c1.2-15.2,2.2-30.5,3.3-45.7c0.2-3,0.7-5.9,0.9-8.9c0.1-2.3,1.6-2.2,3.1-2.1c9.3,0.7,18.5,1.4,27.8,2.2c9.7,0.9,19.4,2,29.1,3
			c12.5,1.4,25,3,37.5,4.2c8.8,0.8,17.4,2.4,25.3,6.6c7.5,4,12.4,10.1,15.2,18.2c4.5,13,4,26.1,1.4,39.4
			c-3.3,16.6-11.6,30.9-21.8,44.2c-4.8,6.4-5.1,8.1,0,14.3c6.2,7.6,11.6,15.8,17.4,23.7c6.8,9.2,9.1,19.7,9.9,30.7
			c0.6,7.9,1.8,15.7-0.8,23.6c-1.9,5.9-4.3,11.8-7.9,16.5c-7.6,9.9-15.8,19.3-27.3,25.1c-6.7,3.4-13,7.3-19.9,10.3
			c-10.2,4.5-20.7,5.2-31.7,4.2c-8.9-0.8-17.9-0.5-26.9-1.3c-13.9-1.3-27.8-2.2-41.7-3.2c-3.4-0.2-4.7-2.4-4.8-5.2
			C22.9,320.8,23,317,23,313.1z M85.3,218.8c-2.2,0-4.3,0.1-6.5,0c-3.7-0.2-5.4,0.9-6.1,5.1c-0.7,4.3-1,8.5-1.5,12.8
			c-1.6,13.5-2.7,27.1-4.3,40.6c-0.3,2.8,0.8,4,3.2,4.6c6.9,1.8,13.8,3.4,20.6,5.3c3.6,1,7.2,1.4,10.8,0.5
			c6.8-1.6,13.6-2.9,20.2-5.1c12-3.9,21.8-9.7,22.8-24.6c1.1-15.3-4.6-27.5-18.2-32.9C113.1,220,99.2,219.3,85.3,218.8z M87.6,175.4
			c14.4-1.1,28.6-4.2,42.4-9.1c3.8-1.4,6.9-3.8,8.9-7.6c6.1-12,1-26.3-12.1-33.8c-13.1-7.5-27.3-8.2-41.9-7.6
			c-5,0.2-6.6,2.8-6.8,7.1c-0.7,13.1-1.6,26.2-1.9,39.3c-0.1,3.4-3.2,7.4,0.6,10.3C79.8,176.4,83.9,174.4,87.6,175.4z"/>
		<path class="st1" d="M1415,237.9c1-20.3,1.9-40.5,3.1-60.8c1.6-27.2,3.4-54.4,5.2-81.6c0.7-10.9,1.8-21.8,2.7-32.7
			c0.1-1.6,0.4-3,1.8-3.8c7-3.8,14.3-6.7,22.3-3.7c16.6,6,17.1,14.1,15.3,29c-3.1,25.7-8,51.1-12.6,76.6
			c-2.5,14.2-5.3,28.3-7.3,42.6c-2.1,14.9-3.7,29.9-5.6,44.9c-0.9,7.2-2.1,14.4-3,21.7c-0.3,2.3-1.5,2.7-3.4,2.4
			c-5.6-0.7-11.2-1.3-16.8-1.9c-3-0.3-3.1-2.2-3-4.6c0.1-9.3,0.1-18.6,0.1-27.9C1414.2,237.9,1414.6,237.9,1415,237.9z"/>
		<path class="st1" d="M430,269.9c0,11-0.2,22,0.1,33c0.1,3.7-1.1,4.9-4.5,5.5c-7.5,1.3-14.9,2.9-22.4,4.5c-3.3,0.7-3.6-1.7-3.8-3.7
			c-0.9-7.9-1.8-15.8-2.2-23.8c-1.5-30.9-2.4-61.8-4.3-92.7c-1-17-2.5-34.1-5.1-51c-2.2-14.6-4.2-29.2-6.6-43.7
			c-0.5-3.1,1.5-3.5,3.3-3.8c12.3-2,24.6-5.2,36.9-5.4c14.5-0.2,29.3-0.2,43.6,2.5c20.3,3.8,36,21.4,38.9,42.2
			c1.5,11.2,3,22.3,2.1,33.7c-1.6,21.9-7.3,41.8-25.8,55.9c-2.7,2-1.8,4.1-0.5,6.5c2.7,4.7,6.4,8.4,9.9,12.4
			c15,17.4,30.3,34.5,46.1,51.1c3.4,3.6,2.1,6.8,0.2,9.9c-4.4,6.9-9.9,12.9-16,18.4c-2.5,2.2-3.6,0.5-5.1-1.3
			c-13.5-16.4-27.1-32.7-40.7-49.1c-10.5-12.7-21.1-25.2-31.5-38c-2.8-3.4-5.6-3.4-9.2-2.4c-3.8,1.1-4.9,3.3-4.8,7.3
			c0.3,10.7,0.1,21.3,0.1,32C429.2,269.9,429.6,269.9,430,269.9z M430.5,123.8c-3,0-6,0.3-9-0.1c-4.4-0.5-5.5,1.5-5.1,5.5
			c2.1,19.4,5.8,38.6,8.7,58c0.5,3.5,2.5,6,7,5c10.4-2.2,20.3-5.9,29.6-11.1c5.8-3.3,9.6-8.6,12.6-14.4c6.7-12.9-0.4-29.8-15.7-37.7
			C449.7,124.4,440.3,123.6,430.5,123.8z"/>
		<path class="st1" d="M722.1,326.2c-4.6-0.3-9.3-0.5-13.9-0.8c-1.8-0.1-3.4-0.2-3-2.8c1.3-9.7-0.6-19.2-1.1-28.8
			c-2.4-40.8-2.4-81.8-4-122.6c-0.3-7.2-2.2-12.8-7.2-17.8c-11.6-11.9-23.1-24-34.5-36.1c-8.3-8.8-15.4-18.6-22.9-28.2
			c-4.8-6.2-9.3-12.5-13.5-19.1c-1.5-2.4-0.9-3.4,1.4-4.5c5.5-2.8,11-5.6,16.3-8.7c3-1.7,5.1-1,7.5,1.2
			c10.7,9.8,19.8,21.1,30.2,31.2c2.6,2.5,5.5,4.8,8.4,7c2.2,1.7,4.6,1.9,7,0.7c2.2-1.2,1.7-3.4,1.5-5.4c-1.3-18.7-2.5-37.5-3.9-56.2
			c-0.3-4.4,0.1-7.4,5-9.1c8.8-3,17.4-6.6,26-10.3c3.6-1.5,3.6,0.5,3.8,2.8c0.4,9.3,0.9,18.6,1.2,27.9c1.2,32.1,2.2,64.2,3.8,96.2
			c1.6,33.7,2.9,67.5,4.1,101.2c0.9,24.1,2.1,48.2,3.1,72.3c0.1,1.7-0.1,3.3,0,5c0.3,3.6-1.7,5.1-4.8,4.6
			C729,325.4,725.6,326.2,722.1,326.2z"/>
		<path class="st1" d="M584.1,86.4c1.1,28.7,2,57.4,3.2,86.1c1.2,28.7,2.6,57.4,4,86.1c0.4,7.7,1,7.8,8.6,7.2
			c16.5-1.4,33.1-2.6,49.7-3.8c8.3-0.6,16.6-0.7,24.9-1.3c3.8-0.3,5,1.3,5.2,4.6c0.5,8.9,1.1,17.9,1.8,26.8c0.3,3.6-2.1,3.5-4.5,3.7
			c-11.6,0.9-23.2,1.9-34.8,2.9c-23.1,2-46.2,4.4-69.4,5.9c-12.7,0.9-11.1,2.8-11.9-10.7c-1.6-26-3.3-52-4.8-78
			c-0.8-13.3-1.4-26.6-2.1-39.8c-1.3-22.2-2.6-44.4-3.8-66.6c-0.5-9.6-0.7-19.3-1.3-28.9c-0.2-2.9,1-4.3,3.5-5
			c8.5-2.3,17.1-4,26-3.7c3.3,0.1,4.8,2,5.1,5C583.9,80.1,583.9,83.3,584.1,86.4C584.1,86.4,584.1,86.4,584.1,86.4z"/>
		<path class="st1" d="M818.6,211.2c4.1-5.9,4.4-12.5,5.3-18.7c4.1-26.9,8.1-53.7,11.2-80.7c0.7-6.1,2-12.1,2.9-18.1
			c0.3-2,0.9-3.5,3.3-3.6c6.3-0.3,12.5-1.5,18.9-1.4c2.6,0.1,3.9,0.8,4.6,3.2c6,21.3,10.6,43,14.2,64.8c3.1,18.8,6.4,37.6,9.6,56.4
			c0.4,2.1,0.4,4.3,0.7,6.4c0.2,1.3,0.5,3,2,3.1c1.8,0.1,1.7-1.7,1.9-3c0.9-5.6,1.8-11.1,2.6-16.7c1.5-11,3-22,4.3-33
			c1.4-11.7,2.6-23.4,3.9-35.1c1.7-14.7,3.3-29.3,5-44c0.6-5.1,3.9-7.2,8.7-7.9c4.3-0.6,8.6-1.1,12.8-1.9c3.3-0.6,4.2,0.5,3.8,3.6
			c-1.6,11.5-3,23-4.6,34.5c-2.2,15.9-4.5,31.9-6.8,47.8c-2.3,16.1-4.6,32.1-6.8,48.2c-2.4,17.9-4.7,35.9-7.1,53.8
			c-1.4,10.7-2.8,21.3-4.2,31.9c-0.6,4-3.2,6.1-7.1,6.4c-3.3,0.2-6.7,0.1-9.9,0.6c-3.5,0.6-5-0.7-5.5-4.1
			c-3.7-23.7-7.4-47.4-11.2-71.1c-3.6-22.1-7.2-44.1-10.9-66.2c-0.2-1.1-0.6-2.2-1-3.3c-0.5-1.2-1.5-2-2.6-1.8
			c-0.9,0.1-1.4,1.2-1.7,2.2c-2.7,8.4-3.6,17.2-4.6,25.9c-1.8,15.1-3.4,30.3-4.9,45.5c-1.2,12.7-2.1,25.5-3.2,38.3
			c-1.1,12.6-2.3,25.1-3.3,37.7c-0.2,2.1-1.1,2.8-3,3c-4.4,0.5-8.9,1.1-13.3,1.7c-4.1,0.6-6.1-1.1-7.5-5.2
			c-6.4-20-10.8-40.6-15.7-61c-6.1-25.2-11.9-50.5-17.7-75.8c-5.8-25.2-11.5-50.3-17.1-75.5c-1.3-5.8-0.2-7.1,5.7-7.3
			c6.5-0.3,13-0.4,19.4-1c2.7-0.2,3.9,0.6,4.4,3.2c8.5,37.5,15.9,75.2,23.2,112.9C817.4,207.7,818,209.2,818.6,211.2z"/>
		<path class="st1" d="M352,145.8c0.7,23.4-1.5,52-2.6,80.6c-0.5,13.3-1.2,26.5-2.5,39.7c-1.1,10.7-6.9,19.3-13.5,27.2
			c-11.3,13.5-25.8,21.4-43.6,21.5c-20.6,0.2-39-6.9-55.2-19.4c-7.4-5.7-9.4-14.3-10.5-22.9c-4.3-34-7.9-68-6.9-102.3
			c0.8-25.9,0-51.9,1.6-77.9c0.2-3.1,0.8-4.3,4.2-4.4c5.5-0.2,10.9-1,16.3-1.7c8.5-1,11.3,1.5,11.4,10c0.1,22.2-0.3,44.3,0.4,66.5
			c0.9,27.2,2.4,54.3,9,80.8c2.1,8.5,6.5,16,13,22c5.1,4.7,11,7.1,17.8,4.5c10.4-4,20.5-8.6,23.5-20.7c1.5-6,1.2-12.1,0.7-18.3
			c-1.4-19.1-0.6-38.2-1.4-57.3c-0.7-15.6,0-31.3-1-46.8c-0.8-12,0.1-23.9-0.8-35.9c-0.3-3.4,1.3-4.4,4.3-4.4
			c6.5,0.1,13-0.2,19.5,0.2c4.3,0.3,8.4,1.7,12.9,1.9c3.2,0.1,3.3,3.9,3.3,6.8C352,110.6,352,125.6,352,145.8z"/>
		<path class="st1" d="M1094.5,116.3c1.4-1.5,2.8-2.7,3.8-4.2c8.2-12.9,19-21.5,34.7-23.7c19.1-2.6,37.9-3.3,55.6,5.9
			c11.3,5.9,17.6,16.2,22.2,27.6c6.2,15.5,8.1,31.7,8.4,48.3c0.1,8.1-0.2,16.2-0.3,24.2c-0.3,19.3-3.2,38.2-8.2,56.8
			c-1.7,6.5-6.6,11.4-10.9,16.5c-12.2,14.6-25.8,27.4-42.7,36.8c-10.9,6-21.9,6.1-33,3.3c-11.8-3.1-23.2-7.5-32.2-16.6
			c-5.8-5.7-9.1-12.8-12.6-19.9c-5.2,5.1-10.2,10.5-15.6,15.3c-9.6,8.5-20.4,15.3-32.6,19.3c-7.2,2.3-14.9,0.8-21.9-1.1
			c-11.8-3.2-23.2-7.5-32.2-16.6c-5-5-8.9-10.8-11.6-17.2c-6.4-14.8-9.5-30.3-10.7-46.5c-0.9-13.7-0.7-27.3,0.6-40.7
			c3-31.9,13.4-61.1,35.9-85.1c7.3-7.8,16.6-11.7,27-13.2c18.9-2.8,37.5-3.2,55.1,5.7c9.3,4.7,14.9,12.8,19.6,21.8
			C1093.4,113.9,1093.8,114.9,1094.5,116.3z M1186.1,179c-0.2-9.1-0.6-23.2-7.4-36.1c-4-7.6-9.3-14.4-17.7-18.1
			c-11.7-5.2-28.1,1.7-36.5,11.6c-7.9,9.3-13,20.1-15,32.4c-3.4,21.3-4.6,42.6-2.3,64c0.6,5.4,1.7,10.7,3.8,15.7
			c3.2,7.5,8.9,12.5,15.7,16.8c12,7.6,26,6.5,36.7-3c6.7-5.9,10.7-13.7,13.4-21.7C1182.8,222.2,1186.2,203.4,1186.1,179z
			 M1071.1,174.2c-0.5-13.8-2-28-11.1-40.2c-12.1-16.3-24.4-17.4-40.5-8.8c-11.7,6.2-18.1,17.4-22.1,29.5
			c-3.7,11.3-4.8,23.2-5.5,35.1c-0.6,9.7-1.1,19.5-0.4,29.2c0.6,8.5,0.8,17.2,3.8,25.3c3,8,9.1,13.5,16.4,18
			c11.8,7.3,25.7,6.4,36.3-2.8c6.7-5.7,10.8-13.2,13.7-21.1C1069.3,218,1070.4,196.5,1071.1,174.2z"/>
		<path class="st1" d="M1252,234.3c0-10.3,0-20.7,0-31c-0.1-31.8,1.6-63.6,1-95.4c-0.1-5.6,0.4-11.3,0.6-17c0-2.1,0.7-3.1,2.9-2.8
			c21.1,2.3,42.5,2.5,63.4,6.3c8.2,1.5,14.9,5.8,21.2,10.5c6.6,5,13.6,9.5,18.3,16.8c7,11,12.1,22.7,15.4,35.3
			c5.6,21.3,5.5,43.1,5.2,64.9c-0.3,20-3.6,39.1-14.1,56.7c-8.6,14.2-21.4,22.7-36.1,29.4c-10.3,4.7-20.7,3.3-31.2,2.5
			c-12.6-1-25.1-2.3-37.6-3.5c-1.8-0.2-3.6-0.6-5.4-0.6c-3.7-0.2-4.6-2.2-4.6-5.6c0.1-22.2,0-44.3,0-66.5
			C1251.3,234.3,1251.7,234.3,1252,234.3z M1289.7,236.5c-0.8,10.6,0.2,19.2,1.1,27.8c0.3,2.4,1.1,3.3,3.5,3.9
			c7.1,1.8,14.1,0.9,21.2,0c22.6-2.9,28.8-11.3,32.3-30.3c4-21.8,2.5-43.6-6.7-64.4c-5.8-13.2-13-25.4-23.2-35.7
			c-6.6-6.7-16.1-7.2-24.3-10.4c-2-0.8-2.1,1-2.6,2.1c-2.8,6.8-2.6,13.8-2.4,21C1289.5,179.8,1288.3,209.1,1289.7,236.5z"/>
		<path class="st1" d="M1411,333.1c0.5-4.3,1.3-10.9,2-17.5c0.3-2.6,1.6-4,4.2-3.9c6,0.1,12.1,0.1,17.2,4.3c1.5,1.3,2.2,2.2,2,4
			c-0.9,7.4-1.7,14.9-2.6,22.3c-0.4,3.5-2.2,5.5-6,5.1c-2.7-0.2-5.3-0.3-8-0.6C1413.1,346.1,1410.8,343.1,1411,333.1z"/>
		<path class="st0" d="M85.3,218.8c13.9,0.5,27.9,1.2,41,6.3c13.6,5.3,19.3,17.6,18.2,32.9c-1,14.9-10.8,20.7-22.8,24.6
			c-6.6,2.1-13.5,3.5-20.2,5.1c-3.6,0.8-7.2,0.5-10.8-0.5c-6.8-1.9-13.7-3.6-20.6-5.3c-2.4-0.6-3.5-1.8-3.2-4.6
			c1.5-13.5,2.7-27.1,4.3-40.6c0.5-4.2,0.8-8.5,1.5-12.8c0.7-4.2,2.3-5.4,6.1-5.1C80.9,218.9,83.1,218.8,85.3,218.8z M96.4,280
			c10.5-0.3,18.2-1.6,24.2-8c5.4-5.8,5.2-15.9-0.7-19.3c-10.1-5.8-20.6-10.7-31.9-13.6c-5.5-1.4-6.5-0.5-7,5.5
			c-0.7,7.6-1,15.3-2.2,22.8c-0.8,4.7,1.1,7.5,4.7,9.3C88.1,279,93.3,280.1,96.4,280z"/>
		<path class="st0" d="M87.6,175.4c-3.7-0.9-7.8,1.1-10.9-1.3c-3.8-2.9-0.7-6.9-0.6-10.3c0.3-13.1,1.2-26.2,1.9-39.3
			c0.2-4.3,1.9-6.9,6.8-7.1c14.6-0.6,28.8,0.1,41.9,7.6c13.1,7.5,18.2,21.8,12.1,33.8c-1.9,3.8-5,6.2-8.9,7.6
			C116.2,171.1,102,174.2,87.6,175.4z M102.3,164c0,0.2,0,0.4,0,0.6c2.6-0.3,5.2-0.6,7.9-0.9c6.3-0.9,7.9-3.5,5.5-9.5
			c-0.7-1.8-1.8-3.4-3.2-5c-4.9-5.3-11.2-8-17.8-10.5c-3.3-1.2-5-0.6-6,2.7c-2,6.4-2.6,12.9-2.8,19.5c-0.1,2.2,1.1,3,3,3
			C93.3,164,97.8,164,102.3,164z"/>
		<path class="st0" d="M430.5,123.8c9.7-0.2,19.2,0.6,28.1,5.2c15.2,7.9,22.3,24.8,15.7,37.7c-3,5.8-6.8,11.2-12.6,14.4
			c-9.3,5.2-19.1,8.9-29.6,11.1c-4.5,1-6.4-1.5-7-5c-2.9-19.3-6.6-38.5-8.7-58c-0.4-4,0.6-6,5.1-5.5
			C424.5,124.1,427.5,123.8,430.5,123.8z M426,143.9c1,9.9,1.7,19.2,2.9,28.4c0.4,3-2.1,7.6,2.9,8.7c3.5,0.8,7.2,1.2,10.8-0.2
			c1.4-0.6,2.8-1.1,4.2-1.7c10.8-4.3,14.1-12.1,10-23c-1.5-4.1-4-6.3-8.3-7.5C441.3,146.8,433.9,145.8,426,143.9z"/>
		<path class="st0" d="M1186.1,179c0.2,24.4-3.3,43.2-9.3,61.5c-2.7,8-6.7,15.8-13.4,21.7c-10.7,9.5-24.6,10.6-36.7,3
			c-6.8-4.3-12.6-9.3-15.7-16.8c-2.1-5-3.2-10.3-3.8-15.7c-2.2-21.4-1.1-42.7,2.3-64c2-12.3,7.1-23.1,15-32.4
			c8.4-9.9,24.8-16.8,36.5-11.6c8.4,3.7,13.6,10.5,17.7,18.1C1185.4,155.8,1185.9,169.9,1186.1,179z M1166.7,197.8
			c0.2-14.5-1.2-28.7-6.1-42.5c-3.1-8.8-9-13.6-17.4-14c-11.8-0.6-15.8,1.6-20.1,12.1c-6.7,16.3-8.9,33.6-9.9,51.1
			c-0.7,12.2-0.2,24.2,4.4,35.8c4,10,10.7,17,21.1,20.2c7.8,2.3,13.3-0.3,16.1-7.9C1161.4,234.9,1166.6,216.9,1166.7,197.8z"/>
		<path class="st0" d="M1071.1,174.2c-0.7,22.3-1.9,43.8-9.4,64.3c-2.9,7.9-7,15.3-13.7,21.1c-10.6,9.1-24.5,10.1-36.3,2.8
			c-7.3-4.5-13.4-10.1-16.4-18c-3-8-3.2-16.8-3.8-25.3c-0.7-9.7-0.2-19.5,0.4-29.2c0.7-11.9,1.8-23.8,5.5-35.1
			c4-12.1,10.4-23.2,22.1-29.5c16.2-8.6,28.5-7.5,40.5,8.8C1069.1,146.3,1070.6,160.4,1071.1,174.2z M998.1,207.6
			c-0.6,9.9,0.9,19.5,4.4,28.9c3.7,9.9,9.8,17.5,20.2,20.4c10.2,2.9,14.6,1,17.5-8c4.2-12.9,8.6-25.7,10.3-39.3
			c2.3-19.4,1.6-38.4-4.8-57c-3.2-9.2-9.1-14-17.6-14.3c-11.8-0.5-15.6,1.6-19.9,12.3C1000.8,168.9,998.6,188.1,998.1,207.6z"/>
		<path class="st0" d="M1289.7,236.5c-1.4-27.4-0.2-56.7-1-86c-0.2-7.2-0.4-14.2,2.4-21c0.5-1.1,0.6-2.9,2.6-2.1
			c8.3,3.1,17.7,3.6,24.3,10.4c10.1,10.3,17.3,22.5,23.2,35.7c9.2,20.8,10.6,42.5,6.7,64.4c-3.4,19.1-9.7,27.4-32.3,30.3
			c-7.1,0.9-14.1,1.9-21.2,0c-2.4-0.6-3.2-1.5-3.5-3.9C1289.9,255.6,1288.9,247.1,1289.7,236.5z M1331.7,222.9
			c-0.2-1.8,0.1-4.9-0.4-8.1c-1.8-11.8-5.6-22.9-10.1-33.8c-4.6-11.1-9.7-22-20.8-28.4c-4.4-2.5-4.8-2.4-4.8,2.7
			c0,23.3,0.1,46.6,0.2,69.9c0.1,9.5,0.5,18.9,0.7,28.4c0,2.7,1,3.8,3.8,3.8c4.2,0,8.3,0.3,12.5,0.7c9.8,0.8,15.4-3.1,16.9-12.5
			C1330.9,238.5,1332.1,231.4,1331.7,222.9z"/>
	</g>
</g>
</svg>
